<?xml version="1.0" standalone="no"?>
<!DOCTYPE svg PUBLIC "-//W3C//DTD SVG 20010904//EN"
 "http://www.w3.org/TR/2001/REC-SVG-20010904/DTD/svg10.dtd">
<svg version="1.0" xmlns="http://www.w3.org/2000/svg"
 width="700.000000pt" height="700.000000pt" viewBox="0 0 700.000000 700.000000"
 preserveAspectRatio="xMidYMid meet">
<metadata>
Created by potrace 1.11, written by Peter Selinger 2001-2013
</metadata>
<g transform="translate(0.000000,700.000000) scale(0.100000,-0.100000)"
fill="#000000" stroke="none">
<path d="M0 3500 l0 -3500 3500 0 3500 0 0 3500 0 3500 -3500 0 -3500 0 0
-3500z m4482 3045 c130 -92 170 -257 149 -629 -78 -1405 -441 -2787 -1056
-4017 l-93 -187 78 -88 c288 -327 515 -504 706 -547 l61 -15 6 132 c16 354
140 791 319 1126 257 481 585 799 943 917 105 35 240 36 330 4 156 -56 279
-187 321 -345 48 -176 11 -522 -83 -776 -183 -491 -552 -892 -1035 -1125 -263
-126 -462 -178 -688 -179 -120 0 -160 4 -230 23 -232 62 -452 216 -740 518
l-115 121 -45 -76 c-69 -120 -234 -383 -308 -490 -142 -207 -398 -419 -570
-472 -86 -27 -204 -27 -278 0 -70 24 -154 87 -200 148 -52 71 -136 245 -169
354 -17 54 -32 98 -35 98 -3 0 -41 -27 -85 -60 -44 -32 -127 -84 -185 -114
-347 -181 -630 -129 -722 131 -72 205 11 585 192 878 153 249 409 498 690 671
52 32 98 62 101 67 4 5 10 36 13 69 28 243 113 685 191 993 91 361 183 647
438 1371 242 685 387 1144 362 1144 -19 0 -130 -82 -194 -144 -278 -268 -631
-903 -812 -1459 -52 -159 -102 -351 -134 -507 -23 -116 -28 -127 -60 -157 -29
-27 -43 -33 -81 -33 -39 0 -51 5 -80 34 -30 30 -34 40 -34 85 0 92 73 399 157
656 188 582 551 1235 852 1536 99 98 236 197 312 225 63 23 145 22 194 -3 122
-63 152 -190 97 -403 -51 -193 -136 -451 -327 -995 -315 -896 -429 -1270 -529
-1736 -39 -182 -96 -508 -96 -550 l0 -26 58 14 c35 9 105 15 182 15 104 0 138
-4 205 -24 44 -14 86 -27 93 -29 31 -9 245 515 612 1501 258 693 316 843 528
1350 189 453 229 545 318 722 75 150 129 227 188 267 61 42 94 51 173 48 61
-2 78 -7 115 -32z m-2995 -2772 c33 -22 53 -64 53 -114 0 -35 -6 -48 -39 -80
-33 -33 -45 -39 -82 -39 -114 0 -176 118 -107 205 42 54 117 66 175 28z"/>
<path d="M4304 6298 c-96 -114 -496 -1072 -931 -2233 -227 -606 -391 -1020
-514 -1298 l-87 -198 133 -132 c99 -98 167 -178 265 -312 73 -99 136 -184 141
-189 26 -29 362 745 523 1206 331 946 527 1958 553 2853 5 189 4 228 -11 278
-10 34 -22 57 -30 57 -8 0 -27 -15 -42 -32z"/>
<path d="M5655 2997 c-324 -121 -597 -409 -825 -872 -149 -302 -236 -623 -247
-913 l-6 -143 24 5 c252 54 444 132 626 253 421 281 697 691 780 1158 21 119
21 284 0 355 -45 151 -192 216 -352 157z"/>
<path d="M2125 2493 c-11 -2 -50 -13 -86 -23 l-67 -20 -6 -42 c-26 -180 -57
-828 -40 -828 13 0 151 197 232 330 120 198 301 544 291 554 -25 26 -248 46
-324 29z"/>
<path d="M2548 2108 c-174 -339 -346 -602 -520 -795 l-66 -73 13 -57 c62 -289
173 -496 277 -518 107 -24 266 68 439 253 94 101 307 424 462 703 l37 66 -142
194 c-77 107 -161 219 -186 249 -55 66 -184 200 -193 200 -4 0 -59 -100 -121
-222z"/>
<path d="M1615 2238 c-112 -85 -340 -317 -407 -413 -116 -168 -193 -349 -224
-529 -37 -212 15 -307 158 -292 125 13 341 134 526 295 l33 29 -10 113 c-19
199 -11 607 15 812 3 26 2 47 -3 46 -4 0 -44 -28 -88 -61z"/>
</g>
</svg>
