<?xml version="1.0" encoding="utf-8"?>
<!-- Generator: Adobe Illustrator 16.0.0, SVG Export Plug-In . SVG Version: 6.00 Build 0)  -->
<!DOCTYPE svg PUBLIC "-//W3C//DTD SVG 1.1//EN" "http://www.w3.org/Graphics/SVG/1.1/DTD/svg11.dtd">
<svg version="1.1" id="Capa_1" xmlns="http://www.w3.org/2000/svg" xmlns:xlink="http://www.w3.org/1999/xlink" x="0px" y="0px"
	 width="96.507px" height="96.507px" viewBox="0 0 96.507 96.507" enable-background="new 0 0 96.507 96.507" xml:space="preserve">
<rect fill="#222F3E" width="96.507" height="96.507"/>
<g>
	<path fill="#FFFFFF" d="M85.974,56.065c-1.146-3.384-4.813-5.317-8.248-4.358c-3.552,0.992-6.715,3.347-9.074,6.125
		c-4.814,5.67-7.765,12.669-8.734,20.019c-0.172,1.295-0.35,2.691-0.135,4.002c-1.016-0.12-2.003-0.399-2.932-0.886
		c-1.82-0.955-3.369-2.35-4.853-3.751c-1.444-1.363-2.754-2.813-3.99-4.318c0.474-0.9,0.936-1.806,1.388-2.717
		c7.4-14.951,12.092-31.293,13.875-47.875c0.229-2.147,0.408-4.301,0.529-6.457c0.111-1.986,0.283-4.004-0.038-5.978
		c-0.224-1.366-0.79-2.831-1.995-3.619c-1.069-0.7-2.412-0.667-3.511-0.044C57,6.92,56.204,8.166,55.576,9.421
		c-1,1.994-1.925,4.025-2.801,6.074c-0.625,1.461-1.225,2.932-1.825,4.403c-0.025,0.064-0.138,0.337-0.19,0.467
		c-0.08,0.183-0.227,0.527-0.213,0.496c-0.126,0.298-0.255,0.597-0.381,0.896c-0.464,1.099-0.924,2.2-1.377,3.305
		c-4.655,11.396-8.355,23.271-13.492,34.478c-0.186-0.08-0.374-0.158-0.565-0.23c-2.368-0.898-4.793-0.824-7.112-0.183
		c0.289-2.032,0.625-4.058,1.018-6.072c1.74-8.935,4.698-17.464,7.761-26.014c1.515-4.227,3.006-8.467,4.241-12.785
		c0.477-1.663,1.035-3.598,0.073-5.209c-0.51-0.853-1.452-1.387-2.442-1.414c-1.102-0.03-2.116,0.537-3.019,1.118
		c-3.388,2.178-5.732,5.699-7.818,9.061c-2.214,3.569-4.063,7.355-5.572,11.274c-1.458,3.785-2.549,7.699-3.281,11.688
		c-0.164,0.896,0.247,1.821,1.181,2.078c0.82,0.226,1.913-0.278,2.078-1.18c1.528-8.339,4.672-16.302,9.309-23.405
		c1.081-1.656,2.212-3.296,3.59-4.724c0.582-0.6,1.197-1.177,1.885-1.652c0.368-0.254,0.749-0.485,1.14-0.696
		c0.024-0.013,0.06-0.032,0.099-0.054c0,0.009,0,0.016,0,0.027c0.006,0.358-0.022,0.495-0.11,0.862
		c-0.286,1.171-0.656,2.33-1.009,3.481c-0.656,2.147-1.369,4.277-2.104,6.397c-3.024,8.711-6.362,17.295-8.424,26.304
		c-0.933,4.08-1.651,8.208-2.175,12.36c-0.434,0.229-0.861,0.471-1.277,0.724c-6.411,3.897-11.872,10.232-12.64,17.926
		c-0.188,1.879,0.055,3.998,1.427,5.417c1.418,1.468,3.488,1.67,5.392,1.265c2.598-0.556,5.09-2.095,7.23-3.844
		c0.495,1.929,1.201,3.795,2.206,5.508c1.104,1.881,2.799,3.138,5.03,3.203c2.024,0.062,3.779-0.91,5.344-2.088
		c1.497-1.125,2.908-2.354,4.013-3.874c1.075-1.48,2.068-3.024,3.037-4.574c0.854-1.365,1.675-2.75,2.469-4.15
		c0.814,0.957,1.667,1.889,2.575,2.783c3.104,3.058,6.549,6.018,11.07,6.395c3.871,0.323,7.95-0.999,11.372-2.725
		c3.13-1.576,5.995-3.785,8.328-6.399c2.38-2.666,4.251-5.734,5.452-9.103c0.587-1.644,0.96-3.338,1.18-5.068
		C86.492,60.042,86.604,57.929,85.974,56.065z M37.777,10.666c0.009,0.028,0.017,0.059,0.026,0.088c-0.004,0-0.005,0-0.009,0
		C37.787,10.725,37.782,10.694,37.777,10.666z M60.043,9.104l0.003-0.002c0.03-0.001,0.036-0.006,0.025-0.014
		C60.219,9.049,60.31,9.115,60.043,9.104z M59.762,9.246C59.974,9.055,59.832,9.193,59.762,9.246L59.762,9.246z M60,9.158
		C60.036,9.2,60.047,9.22,60,9.158L60,9.158z M38.442,60.583c3.17-6.962,5.85-14.116,8.492-21.291
		c2.555-6.943,5.319-13.786,8.142-20.622c0.738-1.79,1.515-3.564,2.338-5.317c0.448-0.955,0.89-1.922,1.396-2.85
		c0.342-0.628,0.432-0.791,0.943-1.249c0.072-0.045,0.144-0.085,0.217-0.125c0.002-0.001,0.003-0.002,0.004-0.003
		c0.005,0.004,0.008,0.007,0.009,0.01c0.287,0.415,0.313,0.588,0.445,1.215c0.176,0.84,0.149,1.715,0.123,2.569
		c-0.501,16.41-4.331,32.8-10.609,47.945c-1.279,3.087-2.68,6.132-4.207,9.111c-0.628-0.841-1.244-1.695-1.86-2.559
		c-1.65-2.311-3.46-4.547-5.715-6.215C38.254,60.996,38.349,60.789,38.442,60.583z M31.652,62.018
		c0.776,0.07,1.513,0.262,2.214,0.542c-1.019,2.083-2.094,4.14-3.245,6.161c-1.217,2.136-2.55,4.212-4.082,6.131
		c-0.12-2.785,0.054-5.594,0.27-8.351c0.097-1.246,0.216-2.491,0.353-3.733C28.615,62.194,30.13,61.88,31.652,62.018z
		 M19.998,80.854c-1.328,0.824-2.881,1.748-4.478,1.865c-3.681,0.272-1.64-5.965-0.906-7.73c1.381-3.325,3.8-6.142,6.541-8.427
		c0.743-0.62,1.556-1.252,2.417-1.842c-0.343,3.492-0.548,7.017-0.374,10.513c0.05,0.981,0.132,1.973,0.255,2.963
		C22.385,79.186,21.241,80.084,19.998,80.854z M39.347,80.909c-0.981,1.477-1.883,2.771-3.216,3.952
		c-1.142,1.011-2.576,2.304-4.149,2.514c-1.875,0.248-2.662-1.328-3.349-2.792c-0.766-1.636-1.258-3.404-1.587-5.178
		c4.164-4.313,7.1-9.682,9.674-15.103c1.513,1.248,2.8,2.837,3.886,4.331c1.128,1.553,2.236,3.103,3.387,4.612
		C42.546,75.863,41,78.422,39.347,80.909z M79.222,54.816C79.467,54.753,79.333,54.794,79.222,54.816L79.222,54.816z M82.802,62.343
		c-0.56,3.288-1.875,6.361-3.764,9.105c-3.616,5.251-9.55,9.311-15.913,10.297c0.009-0.124,0.004-0.252-0.013-0.38
		c-0.002-0.253-0.031-0.51-0.033-0.764c0-1.089,0.131-2.204,0.285-3.156c0.541-3.347,1.44-6.597,2.904-9.659
		c1.565-3.277,3.541-6.426,6.1-9.021c1.176-1.192,2.562-2.123,4.045-2.896c0.678-0.353,1.369-0.659,2.104-0.875
		c0.209-0.061,0.421-0.104,0.631-0.159c0.014-0.004,0.027-0.008,0.042-0.012c0.138-0.006,0.274-0.011,0.411-0.009
		c0.03,0,0.33,0.028,0.318,0.02c1.41,0.226,2.527,1.082,2.914,2.523C83.256,58.931,83.074,60.753,82.802,62.343z"/>
	<g>
		<circle fill="#FFFFFF" cx="19.475" cy="45.955" r="1.712"/>
		<path fill="#FFFFFF" d="M19.476,47.751c-0.991,0-1.797-0.806-1.797-1.796s0.806-1.796,1.797-1.796
			c0.991,0,1.796,0.806,1.796,1.796S20.467,47.751,19.476,47.751z M19.476,44.327c-0.898,0-1.627,0.73-1.627,1.627
			c0,0.898,0.729,1.628,1.627,1.628c0.896,0,1.627-0.73,1.627-1.628C21.103,45.058,20.373,44.327,19.476,44.327z"/>
	</g>
</g>
</svg>
