<?xml version="1.0" encoding="utf-8"?>
<!-- Generator: Adobe Illustrator 16.0.0, SVG Export Plug-In . SVG Version: 6.00 Build 0)  -->
<!DOCTYPE svg PUBLIC "-//W3C//DTD SVG 1.1//EN" "http://www.w3.org/Graphics/SVG/1.1/DTD/svg11.dtd">
<svg version="1.1" id="Capa_1" xmlns="http://www.w3.org/2000/svg" xmlns:xlink="http://www.w3.org/1999/xlink" x="0px" y="0px"
	 width="141.732px" height="253.56px" viewBox="0 0 141.732 253.56" enable-background="new 0 0 141.732 253.56"
	 xml:space="preserve">
<g>
	<g>
		<g>
			<path fill="#FFFFFF" d="M128.497,96.217c-1.755-5.184-7.368-8.144-12.627-6.674c-5.438,1.519-10.28,5.125-13.893,9.376
				c-7.373,8.683-11.887,19.396-13.372,30.647c-0.261,1.982-0.536,4.119-0.208,6.125c-1.549-0.182-3.063-0.61-4.485-1.354
				c-2.787-1.461-5.157-3.598-7.431-5.738c-2.214-2.092-4.216-4.31-6.107-6.615c0.723-1.377,1.432-2.764,2.123-4.159
				c11.329-22.888,18.511-47.908,21.24-73.293c0.354-3.288,0.628-6.585,0.814-9.886c0.172-3.04,0.429-6.128-0.061-9.15
				c-0.344-2.09-1.209-4.335-3.055-5.541c-1.638-1.073-3.69-1.021-5.374-0.066c-1.925,1.089-3.142,2.996-4.108,4.918
				c-1.526,3.051-2.941,6.161-4.282,9.299c-0.957,2.235-1.877,4.488-2.794,6.74c-0.039,0.098-0.213,0.516-0.292,0.714
				c-0.123,0.28-0.346,0.809-0.326,0.76c-0.196,0.456-0.391,0.914-0.584,1.371c-0.709,1.683-1.413,3.37-2.105,5.062
				c-7.128,17.446-12.794,35.625-20.657,52.783c-0.286-0.122-0.572-0.24-0.864-0.351c-3.625-1.377-7.337-1.264-10.888-0.282
				c0.44-3.112,0.957-6.211,1.559-9.298c2.662-13.676,7.188-26.736,11.878-39.823c2.318-6.471,4.602-12.962,6.496-19.573
				c0.729-2.546,1.581-5.51,0.108-7.975c-0.779-1.305-2.223-2.124-3.736-2.166c-1.688-0.043-3.241,0.823-4.623,1.714
				c-5.185,3.333-8.775,8.724-11.969,13.871c-3.391,5.462-6.222,11.26-8.532,17.259c-2.231,5.794-3.903,11.788-5.021,17.894
				c-0.252,1.372,0.377,2.789,1.806,3.181c1.257,0.345,2.93-0.425,3.182-1.806c2.339-12.768,7.154-24.959,14.25-35.833
				c1.657-2.536,3.389-5.045,5.498-7.231c0.889-0.919,1.832-1.801,2.887-2.53c0.561-0.387,1.145-0.742,1.745-1.066
				c0.038-0.019,0.091-0.048,0.153-0.083c0,0.015,0,0.025,0,0.042c0.007,0.55-0.034,0.757-0.17,1.32
				c-0.437,1.793-1.004,3.566-1.545,5.331c-1.004,3.286-2.094,6.547-3.221,9.793c-4.632,13.336-9.74,26.478-12.897,40.271
				c-1.43,6.245-2.529,12.566-3.331,18.923c-0.663,0.35-1.317,0.719-1.955,1.106c-9.815,5.967-18.175,15.667-19.352,27.444
				c-0.288,2.875,0.084,6.12,2.184,8.29c2.171,2.248,5.341,2.558,8.256,1.937c3.977-0.852,7.791-3.203,11.068-5.884
				c0.757,2.953,1.839,5.811,3.376,8.43c1.69,2.881,4.285,4.806,7.701,4.909c3.099,0.091,5.785-1.394,8.181-3.197
				c2.293-1.724,4.453-3.604,6.145-5.934c1.645-2.264,3.165-4.632,4.649-7.002c1.308-2.09,2.563-4.21,3.778-6.353
				c1.248,1.465,2.551,2.891,3.94,4.258c4.755,4.682,10.028,9.216,16.946,9.793c5.927,0.493,12.176-1.532,17.415-4.173
				c4.789-2.414,9.177-5.796,12.751-9.797c3.641-4.08,6.504-8.776,8.343-13.936c0.898-2.516,1.471-5.11,1.808-7.759
				C129.289,102.304,129.464,99.07,128.497,96.217z M54.709,26.712c0.017,0.044,0.027,0.089,0.041,0.135
				c-0.005,0-0.01-0.001-0.014-0.001C54.727,26.801,54.717,26.756,54.709,26.712z M88.799,24.321l0.003-0.001
				c0.047-0.002,0.055-0.01,0.042-0.021C89.067,24.236,89.207,24.338,88.799,24.321z M88.368,24.54
				C88.694,24.246,88.473,24.457,88.368,24.54L88.368,24.54z M88.735,24.404C88.785,24.469,88.804,24.498,88.735,24.404
				L88.735,24.404z M55.73,103.131c4.852-10.658,8.954-21.609,12.996-32.595c3.91-10.629,8.147-21.104,12.466-31.57
				c1.133-2.74,2.32-5.456,3.579-8.141c0.688-1.463,1.365-2.943,2.135-4.363c0.53-0.961,0.667-1.209,1.45-1.912
				c0.105-0.068,0.218-0.13,0.328-0.193c0.003-0.001,0.007-0.001,0.01-0.003c0.005,0.006,0.008,0.01,0.015,0.015
				c0.438,0.635,0.476,0.9,0.68,1.861c0.271,1.287,0.229,2.625,0.188,3.933c-0.768,25.122-6.629,50.214-16.24,73.401
				c-1.962,4.725-4.106,9.386-6.442,13.95c-0.96-1.29-1.905-2.599-2.847-3.92c-2.526-3.537-5.297-6.963-8.75-9.514
				C55.441,103.765,55.584,103.447,55.73,103.131z M45.334,105.33c1.189,0.107,2.317,0.399,3.391,0.828
				c-1.56,3.191-3.208,6.341-4.969,9.435c-1.864,3.269-3.903,6.448-6.25,9.385c-0.183-4.263,0.083-8.563,0.413-12.783
				c0.148-1.908,0.331-3.813,0.54-5.716C40.684,105.599,43.005,105.119,45.334,105.33z M27.492,134.167
				c-2.033,1.261-4.412,2.676-6.856,2.857c-5.636,0.417-2.512-9.135-1.388-11.837c2.114-5.09,5.818-9.401,10.013-12.901
				c1.138-0.95,2.382-1.916,3.704-2.816c-0.527,5.345-0.843,10.74-0.574,16.092c0.076,1.501,0.202,3.02,0.389,4.537
				C31.146,131.615,29.395,132.987,27.492,134.167z M57.115,134.249c-1.504,2.263-2.884,4.243-4.924,6.049
				c-1.748,1.551-3.945,3.531-6.354,3.851c-2.87,0.381-4.073-2.031-5.126-4.272c-1.174-2.505-1.923-5.213-2.431-7.928
				c6.375-6.603,10.872-14.822,14.813-23.122c2.313,1.913,4.286,4.344,5.948,6.633c1.727,2.377,3.424,4.748,5.185,7.062
				C62.013,126.526,59.645,130.448,57.115,134.249z M118.16,94.304C118.536,94.207,118.333,94.272,118.16,94.304L118.16,94.304z
				 M123.64,105.828c-0.856,5.035-2.871,9.74-5.762,13.938c-5.536,8.039-14.618,14.253-24.359,15.768
				c0.012-0.193,0.003-0.387-0.023-0.584c0-0.39-0.046-0.777-0.046-1.17c-0.003-1.667,0.196-3.374,0.434-4.83
				c0.83-5.125,2.207-10.099,4.444-14.789c2.396-5.017,5.424-9.837,9.341-13.808c1.799-1.829,3.92-3.252,6.194-4.435
				c1.035-0.543,2.094-1.011,3.217-1.341c0.32-0.092,0.644-0.158,0.967-0.244c0.023-0.006,0.041-0.011,0.064-0.016
				c0.211-0.01,0.419-0.019,0.63-0.017c0.044,0,0.503,0.043,0.484,0.033c2.162,0.345,3.872,1.654,4.466,3.862
				C124.336,100.605,124.054,103.394,123.64,105.828z"/>
			<g>
				<circle fill="#FFFFFF" cx="26.693" cy="80.737" r="2.622"/>
				<path fill="#FFFFFF" d="M26.693,83.487c-1.517,0-2.751-1.233-2.751-2.75s1.234-2.751,2.751-2.751c1.516,0,2.75,1.234,2.75,2.751
					S28.209,83.487,26.693,83.487z M26.693,78.245c-1.375,0-2.493,1.12-2.493,2.492c0,1.375,1.118,2.492,2.493,2.492
					c1.373,0,2.492-1.116,2.492-2.492C29.185,79.365,28.066,78.245,26.693,78.245z"/>
			</g>
		</g>
		<g>
			<polygon fill="#FFFFFF" points="135.672,88.712 135.672,162.689 70.421,162.689 70.421,168.515 141.499,168.515 141.499,88.712 
							"/>
			<polygon fill="#FFFFFF" points="71.075,0 0,0 0,79.803 5.825,79.803 5.825,5.825 71.075,5.825 			"/>
		</g>
	</g>
	<g>
		<g>
			<path fill="#FFFFFF" d="M5.958,218.609c-2.811-2.896-4.215-6.915-4.215-12.052c0-3.511,0.647-6.64,1.943-9.386
				c1.295-2.742,3.105-4.873,5.433-6.389c2.327-1.514,5.005-2.271,8.034-2.271c2.416,0,4.6,0.491,6.554,1.478
				c1.954,0.991,3.446,2.342,4.479,4.056c1.031,1.713,1.459,3.6,1.283,5.661h-5.267c0.175-1.801-0.375-3.303-1.647-4.512
				c-1.273-1.206-2.985-1.811-5.137-1.811c-2.02,0-3.809,0.549-5.367,1.647c-1.559,1.096-2.767,2.656-3.623,4.675
				c-0.856,2.019-1.284,4.324-1.284,6.918c0,3.686,0.911,6.519,2.732,8.493c1.822,1.976,4.424,2.967,7.805,2.967
				c1.492,0,3.007-0.265,4.545-0.792c1.535-0.529,3.467-1.427,5.796-2.699l2.501,4.083c-3.863,2.852-8.145,4.277-12.842,4.277
				C12.675,222.954,8.766,221.504,5.958,218.609z"/>
			<path fill="#FFFFFF" d="M42.748,220.882c-2.13-1.56-3.752-3.655-4.873-6.289c-1.12-2.636-1.678-5.49-1.678-8.561
				c0-3.34,0.635-6.326,1.91-8.96c1.271-2.635,3.149-4.718,5.629-6.255c2.482-1.537,5.456-2.306,8.925-2.306
				c1.009,0,2.272,0.055,3.786,0.163c1.516,0.112,2.799,0.253,3.854,0.429h4.411v27.331c0,0.617,0.144,1.085,0.429,1.415
				c0.285,0.331,0.713,0.494,1.283,0.494c0.747,0,1.339-0.372,1.779-1.117l3.688,2.436c-0.57,1.097-1.394,1.966-2.469,2.602
				c-1.077,0.637-2.229,0.953-3.458,0.953c-1.624,0-3.02-0.468-4.183-1.413c-1.162-0.944-1.789-2.055-1.878-3.327v0.063
				c-0.745,1.45-1.997,2.595-3.752,3.427c-1.758,0.835-3.689,1.25-5.796,1.25C47.414,223.217,44.877,222.441,42.748,220.882z
				 M55.426,216.962c1.36-0.92,2.393-2.086,3.098-3.491c0.394-0.745,0.623-1.383,0.688-1.909c0.068-0.524,0.101-1.118,0.101-1.781
				v-15.936l-2.769-0.199c-2.193-0.17-3.664-0.262-4.411-0.262c-3.336,0-5.927,1.186-7.771,3.559
				c-1.844,2.371-2.766,5.376-2.766,9.019c0,3.386,0.81,6.29,2.436,8.729c1.625,2.438,3.864,3.654,6.719,3.654
				C52.506,218.344,54.064,217.884,55.426,216.962z"/>
			<path fill="#FFFFFF" d="M81.486,221.076c-2.308-1.425-4.052-3.356-5.237-5.79c-1.185-2.44-1.778-5.173-1.778-8.203
				c0-2.984,0.572-5.882,1.71-8.69c1.145-2.81,2.854-5.141,5.141-6.982c2.282-1.845,5.094-2.766,8.429-2.766
				c2.198,0,4.236,0.426,6.126,1.281c1.887,0.857,3.389,2.09,4.509,3.691c1.121,1.601,1.681,3.456,1.681,5.563
				c0,3.385-1.381,6.037-4.147,7.972c-2.768,1.933-6.369,2.854-10.802,2.766l-6.851-0.136c0.483,2.726,1.549,4.823,3.194,6.293
				c1.646,1.471,3.831,2.203,6.554,2.203c3.556,0,6.937-1.184,10.142-3.556l2.964,3.756c-4.172,3.162-8.606,4.74-13.302,4.74
				C86.567,223.217,83.792,222.508,81.486,221.076z M94.098,203.66c1.71-1.01,2.565-2.523,2.565-4.545
				c0-1.801-0.647-3.183-1.94-4.149c-1.298-0.965-2.843-1.448-4.646-1.448c-2.021,0-3.775,0.604-5.266,1.813
				c-1.496,1.206-2.634,2.711-3.427,4.509c-0.792,1.803-1.25,3.58-1.384,5.337h7.114C90.058,205.175,92.384,204.67,94.098,203.66z"
				/>
			<path fill="#FFFFFF" d="M116.432,217.919c0.305,0.329,0.704,0.493,1.186,0.493c0.704,0,1.253-0.399,1.649-1.186l3.883,2.436
				c-0.615,1.145-1.413,2.029-2.405,2.67c-0.985,0.633-2.138,0.953-3.455,0.953c-2.066,0-3.701-0.604-4.906-1.811
				c-1.209-1.209-1.813-2.866-1.813-4.976v-41.818h5.401v42.018C115.972,217.184,116.124,217.587,116.432,217.919z"/>
			<path fill="#FFFFFF" d="M129.417,182.123c-0.704-0.701-1.055-1.491-1.055-2.372c0-0.92,0.351-1.729,1.055-2.434
				c0.701-0.704,1.491-1.058,2.372-1.058c0.92,0,1.744,0.354,2.469,1.058c0.726,0.704,1.086,1.514,1.086,2.434
				c0,0.881-0.36,1.671-1.086,2.372c-0.725,0.704-1.549,1.055-2.469,1.055C130.908,183.177,130.118,182.827,129.417,182.123z
				 M135.014,217.919c0.305,0.329,0.704,0.493,1.186,0.493c0.701,0,1.25-0.399,1.649-1.186l3.883,2.436
				c-0.614,1.145-1.416,2.029-2.404,2.67c-0.986,0.633-2.139,0.953-3.456,0.953c-2.064,0-3.699-0.604-4.908-1.811
				c-1.207-1.209-1.811-2.866-1.811-4.976v-26.935h5.401v27.134C134.554,217.184,134.708,217.587,135.014,217.919z"/>
		</g>
		<g>
			<path fill="#FFFFFF" d="M41.638,251.441l1.046-1.824c1.369,1.073,3.682,1.925,6.095,1.925c3.262,0,4.6-1.11,4.6-2.806
				c0-4.467-11.118-0.944-11.118-7.728c0-2.805,2.413-4.893,6.781-4.893c2.218,0,4.63,0.621,6.064,1.598l-1.01,1.856
				c-1.5-1.04-3.293-1.466-5.054-1.466c-3.099,0-4.467,1.209-4.467,2.84c0,4.629,11.118,1.138,11.118,7.728
				c0,2.966-2.608,4.889-7.075,4.889C45.779,253.56,43.042,252.649,41.638,251.441z"/>
			<path fill="#FFFFFF" d="M68.996,252.356c-0.914,0.813-2.282,1.204-3.622,1.204c-3.227,0-5.02-1.826-5.02-4.989v-10.367h-3.065
				v-1.953h3.065v-3.753h2.315v3.753h5.216v1.953h-5.216v10.239c0,2.019,1.044,3.126,2.967,3.126c0.944,0,1.89-0.292,2.543-0.879
				L68.996,252.356z"/>
			<path fill="#FFFFFF" d="M88.656,236.25v17.147h-2.218v-3.13c-1.209,2.088-3.424,3.292-6.161,3.292
				c-4.372,0-7.241-2.444-7.241-7.37v-9.939h2.315v9.713c0,3.653,1.892,5.51,5.151,5.51c3.589,0,5.835-2.315,5.835-6.229v-8.994
				H88.656z"/>
			<path fill="#FFFFFF" d="M110.793,229.203v24.195h-2.218v-3.389c-1.402,2.312-3.785,3.551-6.618,3.551
				c-4.895,0-8.544-3.551-8.544-8.737c0-5.185,3.649-8.707,8.544-8.707c2.736,0,5.086,1.172,6.519,3.391v-10.304H110.793z
				 M108.511,244.823c0-4.011-2.741-6.684-6.36-6.684c-3.649,0-6.391,2.673-6.391,6.684s2.741,6.682,6.391,6.682
				C105.77,251.504,108.511,248.833,108.511,244.823z"/>
			<path fill="#FFFFFF" d="M116.725,230.833c0-0.879,0.749-1.631,1.695-1.631c0.945,0,1.697,0.719,1.697,1.6
				c0,0.948-0.719,1.695-1.697,1.695C117.474,232.498,116.725,231.75,116.725,230.833z M117.245,236.25h2.315v17.147h-2.315V236.25z
				"/>
			<path fill="#FFFFFF" d="M124.289,244.823c0-5.088,3.717-8.707,8.736-8.707c5.023,0,8.707,3.619,8.707,8.707
				s-3.684,8.737-8.707,8.737C128.005,253.56,124.289,249.911,124.289,244.823z M139.385,244.823c0-4.011-2.707-6.684-6.36-6.684
				c-3.649,0-6.389,2.673-6.389,6.684s2.739,6.682,6.389,6.682C136.678,251.504,139.385,248.833,139.385,244.823z"/>
		</g>
	</g>
</g>
</svg>
