<?xml version="1.0" encoding="utf-8"?>
<!-- Generator: Adobe Illustrator 16.0.0, SVG Export Plug-In . SVG Version: 6.00 Build 0)  -->
<!DOCTYPE svg PUBLIC "-//W3C//DTD SVG 1.1//EN" "http://www.w3.org/Graphics/SVG/1.1/DTD/svg11.dtd">
<svg version="1.1" id="Capa_1" xmlns="http://www.w3.org/2000/svg" xmlns:xlink="http://www.w3.org/1999/xlink" x="0px" y="0px"
	 width="388.089px" height="138.322px" viewBox="0 0 388.089 138.322" enable-background="new 0 0 388.089 138.322"
	 xml:space="preserve">
<g>
	<g>
		<path fill="#FFFFFF" d="M56.585,96.382c-1.051-14.693-13.293-26.289-28.251-26.289C12.687,70.093,0,82.777,0,98.424
			c0,15.65,12.688,28.333,28.334,28.333c5.707,0,11.015-1.692,15.46-4.596v4.596h12.869L56.585,96.382z M28.539,114.328
			c-8.441,0-15.282-7.002-15.282-15.643c0-8.64,6.841-15.64,15.282-15.64c8.144,0,14.796,6.514,15.255,14.729v1.822
			C43.335,107.812,36.683,114.328,28.539,114.328z"/>
		<path fill="#FFFFFF" d="M117.419,126.757l-0.082-30.375c-1.047-14.693-13.293-26.289-28.25-26.289
			c-5.709,0-11.016,1.695-15.465,4.596v-4.596H60.753v56.664h12.869V96.893c0.932-7.794,7.82-13.847,15.668-13.847
			c8.145,0,14.797,6.514,15.258,14.729v1.822c-0.018,0.314-0.047,0.624-0.082,0.933v21.683c0.027-0.017,0.057-0.033,0.082-0.051
			v4.596H117.419z"/>
		<path fill="#FFFFFF" d="M150.372,114.328c-7.844-0.252-14.713-5.854-15.643-13.65c-0.07-0.587-0.059-1.343-0.059-1.95
			s-0.008-1.502,0.033-2.192V82.964h16.684V70.093h-16.684v-5.485V53.898h-12.871v16.194h-6.912v12.871h6.912v15.46
			c0,4.345,0.578,8.85,2.328,12.527c4.547,9.574,13.334,15.934,26.006,15.806c2.588-0.025,4.471,0.289,7.088,0v-12.429
			C154.64,114.487,152.278,114.389,150.372,114.328z"/>
		<g>
			<path fill="#FFFFFF" d="M196.337,95.27c-6.016-3.802-9.576-2.964-19.883-2.964c-4.277,0-5.025-1.916-5.355-3.55
				c-0.463-2.292,0.877-5.439,5.727-5.71c7.777-0.434,23.652,0,23.652,0V70.577c0,0-16.482-0.203-21.551-0.086
				c-16.797,0.392-20.129,7.986-21.289,12.077c-0.971,3.427-0.922,11.271,3.072,16.097c2.965,3.581,6.914,6.173,14.533,6.48
				c11.434,0.461,15.176-0.432,15.227,4.88c0.049,4.938-6.375,4.387-14.695,4.387c-7.652,0-14.754-0.065-14.754-0.065l-0.102,12.421
				c5.105-0.036,11.646,0.073,17.387,0.073c6.297,0,13.082,0.641,18.404-3.28c5.471-4.03,6.291-7.907,6.754-11.62
				C204.239,105.768,200.812,98.098,196.337,95.27z"/>
		</g>
	</g>
	<g>
		<path fill="#FFFFFF" d="M183.245,27.911c0,2.832-2.293,5.123-5.123,5.123l0,0c-2.83,0-5.125-2.291-5.125-5.123l0,0
			c0-2.83,2.295-5.123,5.125-5.123l0,0C180.952,22.788,183.245,25.081,183.245,27.911L183.245,27.911z"/>
		<path fill="#FFFFFF" d="M171.339,63.037c-0.572,0-0.961-0.021-1.127-0.034l-27.592-0.042V33.832
			c-0.041-0.968-0.311-12.171,8.758-20.757c4.271-4.04,12.143-8.361,21.428-8.361c7.773,0,14.895,3.146,20.596,9.095
			c13.408,13.991,7.047,32.342,0.658,39.057C185.085,62.302,174.399,63.037,171.339,63.037z M170.442,59.554
			c0,0,0.324,0.024,0.896,0.024c2.711,0,12.188-0.653,20.215-9.094c5.596-5.88,11.148-21.977-0.648-34.284
			c-5.104-5.328-11.195-8.03-18.1-8.03c-8.279,0-15.436,3.996-19.051,7.419c-8.092,7.66-7.684,18.013-7.678,18.116v0.09V59.51
			L170.442,59.554L170.442,59.554z"/>
	</g>
	<rect x="208.767" y="70.455" fill="#FFFFFF" width="1.482" height="56.423"/>
	<g>
		<path fill="#FFFFFF" d="M215.964,70.173h11.922c4.01,0,8.006,2.099,8.006,7.45c0,3.046-0.699,5.228-4.156,6.799l0,0
			c2.137,1.231,3.084,2.298,3.041,6.702c0,0-0.096,1.787,0.127,3.335c0.092,0.649,0.26,2.47,0.988,3.645h-2.012
			c-0.443-0.851-0.666-0.805-0.951-3.687l-0.125-3.209c-0.084-6.382-4.244-5.804-8.902-5.804h-6.236v12.699h-1.701V70.173z
			 M227.538,83.32c3.201,0,6.346-1.16,6.262-5.645c-0.092-4.868-4.113-5.633-7.637-5.633h-8.498V83.32H227.538z"/>
		<path fill="#FFFFFF" d="M237.169,90.092c0,2.568,0.736,6.309,4.973,6.462c2.313,0.079,4.369-1.154,4.779-3.527h1.646
			c-0.088,3.031-2.84,5.077-5.803,5.077c-6.379,0-7.473-4.104-7.473-8.288c0-4.897,2.313-8.42,7.088-8.42
			c4.98,0,6.602,3.615,6.602,8.786L237.169,90.092z M247.001,88.646c0-2.907-1.521-5.19-4.701-5.222
			c-4.105-0.044-5.131,3.142-5.131,5.222H247.001z"/>
		<path fill="#FFFFFF" d="M331.507,90.092c0,2.568,0.742,6.309,4.973,6.462c2.316,0.079,4.373-1.154,4.783-3.527h1.646
			c-0.088,3.031-2.84,5.077-5.801,5.077c-6.381,0-7.475-4.104-7.475-8.288c0-4.897,2.309-8.42,7.088-8.42
			c4.982,0,6.604,3.615,6.604,8.786L331.507,90.092z M341.347,88.646c0-2.907-1.523-5.19-4.703-5.222
			c-4.105-0.044-5.137,3.142-5.137,5.222H341.347z"/>
		<path fill="#FFFFFF" d="M248.114,81.54h2.275v-4.447h2.031v4.447h3.029v1.868h-3.029v10.969c0.092,1.229,0.439,2.144,1.336,2.144
			c0.643,0,1.404-0.062,1.404-0.062l-0.008,1.401c0,0-1.039,0.243-1.646,0.243c-2.188,0-3.117-1.257-3.117-3.563V83.408h-2.275
			V81.54z"/>
		<path fill="#FFFFFF" d="M356.729,81.54h2.275v-4.447h2.031v4.447h3.033v1.868h-3.033v10.969c0.092,1.229,0.443,2.144,1.336,2.144
			c0.645,0,1.404-0.062,1.404-0.062l-0.004,1.401c0,0-1.039,0.243-1.646,0.243c-2.191,0-3.121-1.257-3.121-3.563V83.408h-2.275
			V81.54z"/>
		<path fill="#FFFFFF" d="M267.749,95.824c0,0.759,0.604,1.039,0.813,1.063c0.381,0.04,0.721-0.029,1.021-0.153v0.913
			c-0.342,0.183-0.949,0.283-1.209,0.274c-1.203-0.033-1.881-0.703-2.023-1.652c-0.025-0.167-0.043-0.679-0.043-0.679l0,0
			c-1.549,1.785-2.789,2.514-5.771,2.514c-3.875,0-5.258-2.23-5.258-4.694c0-2.402,1.873-3.619,3.004-4.178
			c1.584-0.784,5.27-0.516,5.742-0.679c0.299-0.107,2.121-0.145,2.174-2.614c0.047-2.126-1.615-2.938-4.041-2.938
			c-3.75,0-4.365,1.179-4.365,3.368h-1.617c0-2.158,0.615-4.717,5.811-4.896c3.334-0.11,5.764,1.917,5.764,4.195
			C267.749,85.668,267.749,93.284,267.749,95.824z M265.923,89.753L265.923,89.753c-0.604,0.399-1.797,0.404-2.744,0.404
			c0,0-2.404,0.059-3.107,0.226c-1.811,0.434-3.146,1.674-3.146,3.232c0,2.065,1.721,2.708,3.908,2.777
			c2.551,0.084,4.779-1.234,5.086-3.747C266.007,91.897,265.923,89.753,265.923,89.753z"/>
		<path fill="#FFFFFF" d="M270.259,75.855h1.793v3.177h-1.793V75.855z M270.259,81.806h1.793v16.298h-1.793V81.806z"/>
		<path fill="#FFFFFF" d="M274.116,75.855h1.822v22.248h-1.822V75.855z"/>
		<path fill="#FFFFFF" d="M284.724,70.164l9.408,0.009c6.766,0.119,8.563,4.034,8.563,7.75c0,4.731-3.037,7.747-8.223,7.747
			l-8.047-0.01v12.443h-1.701V70.164z M294.634,83.846c2.48-0.366,6.041-1.309,6.205-5.341c0.146-3.557-2.59-6.191-5.961-6.508
			l-8.453-0.011v11.847L294.634,83.846z"/>
		<path fill="#FFFFFF" d="M303.269,81.588h1.617v2.38h0.088c0.809-1.896,2.309-2.759,4.098-2.759h0.934v2.063h-0.934
			c-3.793,0-4.186,4.101-4.186,6.815v8.016h-1.617V81.588z"/>
		<path fill="#FFFFFF" d="M316.972,98.104c-5.59,0-7.219-4.135-7.219-8.934c0-4.767,1.629-8.719,7.461-8.719
			c5.588,0,7.461,4.181,7.461,8.945C324.675,94.195,322.806,98.104,316.972,98.104z M317.093,82.298
			c-3.637,0.203-5.387,2.334-5.387,7.13c0,4.768,2.365,6.768,5.387,6.606c4.047-0.214,5.131-2.124,5.387-6.606
			C322.751,84.64,320.31,82.118,317.093,82.298z"/>
		<path fill="#FFFFFF" d="M323.833,103.417c0.363,0.04,0.77,0.082,1.135,0.082c1.252,0,1.643-0.324,1.643-2.999V81.76h1.541v18.581
			c0,3.483-0.674,4.534-2.861,4.534c-0.486,0-0.971-0.042-1.457-0.079V103.417z M326.61,75.686h1.541v2.962h-1.541V75.686z"/>
		<path fill="#FFFFFF" d="M357.718,91.876c0,1.536-0.775,6.228-6.561,6.228c-4.422,0-7.141-3.858-7.141-8.776
			c0-5.418,2.471-8.773,7.451-8.773c5.145,0,6.129,4.302,6.129,5.489h-1.701c0-1.001-1.348-3.722-4.988-3.515
			c-2.938,0.166-4.893,2.294-4.893,6.994c0,5.106,3.027,6.836,5.412,6.755c3.125-0.107,4.486-2.428,4.59-4.401H357.718z"/>
	</g>
	<g>
		<path fill="#FFFFFF" d="M215.862,99.534h8.76l5.635,20.422h0.092l5.182-20.422h8.713v27.74h-5.516v-21.553h-0.088l-5.295,21.553
			h-6.088l-5.785-21.553h-0.092v21.553h-5.518V99.534z"/>
		<path fill="#FFFFFF" d="M246.661,115.704v-0.406c0-3.862,3.561-5.668,7.311-5.668c5.91,0,7.029,2.119,7.029,5.145v8.822
			c0.133,2.205,0.604,2.274,1.105,3.24h-4.76c-0.326-0.53-0.469-1.184-0.611-1.745h-0.074c-1.152,1.745-3.055,2.183-5.434,2.183
			c-3.461,0-4.852-2.472-4.852-4.717c0-2.3,0.611-4.722,4.08-5.32c0.939-0.163,2.846-0.423,3.783-0.574
			c1.5-0.24,2.5-0.701,2.5-1.822c0-1.279-1.146-1.786-2.807-1.786c-1.512,0-2.801,0.871-2.801,2.183v0.467H246.661z
			 M256.735,118.452c-0.779,0.651-2.613,0.926-3.229,1.052c-2.02,0.375-2.824,1.197-2.766,2.867c0.051,1.275,1.533,1.7,2.547,1.63
			c1.006-0.069,2.828-0.679,3.201-2.777C256.61,120.53,256.735,118.452,256.735,118.452z"/>
		<path fill="#FFFFFF" d="M277.862,115.704v-0.406c0-3.862,3.557-5.668,7.305-5.668c5.916,0,7.033,2.119,7.033,5.145v8.822
			c0.131,2.205,0.6,2.274,1.107,3.24h-4.76c-0.326-0.53-0.469-1.184-0.615-1.745h-0.072c-1.152,1.745-3.053,2.183-5.434,2.183
			c-3.459,0-4.85-2.472-4.85-4.717c0-2.3,0.615-4.722,4.08-5.32c0.938-0.163,2.844-0.423,3.783-0.574
			c1.498-0.24,2.496-0.701,2.496-1.822c0-1.279-1.145-1.786-2.803-1.786c-1.516,0-2.803,0.871-2.803,2.183v0.467H277.862z
			 M287.933,118.452c-0.775,0.651-2.615,0.926-3.227,1.052c-2.02,0.375-2.826,1.197-2.764,2.867c0.045,1.275,1.529,1.7,2.543,1.63
			c1.008-0.069,2.836-0.679,3.203-2.777C287.812,120.53,287.933,118.452,287.933,118.452z"/>
		<path fill="#FFFFFF" d="M262.026,110.248h4.76v1.881h0.07c1.047-1.582,2.85-2.298,4.939-2.298c3.104,0,4.943,2.388,4.943,5.548
			v11.896h-4.486v-10.073c0-1.608-1.141-2.729-2.619-2.729c-1.695,0-2.631,1.852-2.631,3.64v9.162h-4.977V110.248z"/>
		<path fill="#FFFFFF" d="M364.886,110.248h4.76v1.881h0.07c1.047-1.582,2.848-2.298,4.943-2.298c3.1,0,4.939,2.388,4.939,5.548
			v11.896h-4.482v-10.073c0-1.608-1.145-2.729-2.623-2.729c-1.691,0-2.631,1.852-2.631,3.64v9.162h-4.977V110.248z"/>
		<path fill="#FFFFFF" d="M308.233,109.942v16.752c0,4.654-2.766,6.914-8.572,6.914c-4.219,0-6.598-2.197-6.598-5.211h4.76
			c0,0.59,0.289,1.047,0.758,1.34c0.469,0.298,1.047,0.494,1.658,0.494c2.02,0,3.729-0.884,3.729-2.687v-2.327h-0.07
			c-1.01,1.313-3.549,1.676-5.137,1.671c-2.488-0.011-5.949-0.853-5.949-8.424c0-5.536,2.225-8.522,6.096-8.485
			c1.371,0.011,4.051,0.095,4.99,1.932h0.07v-1.969H308.233z M300.524,123.22c2.09,0,3.301-1.71,3.443-4.359
			c0.23-4.289-1.461-5.273-3.443-5.273c-2.199,0-3.615,1.38-3.674,5.599C296.813,121.608,298.431,123.22,300.524,123.22z"/>
		<path fill="#FFFFFF" d="M314.013,119.746v0.821c0,1.93,1.148,2.726,2.451,2.841c1.592,0.138,3.318-0.078,3.6-1.611h4
			c-0.186,3.827-2.84,5.478-7.527,5.478c-7.211,0-7.5-4.717-7.5-8.82c0-4.409,1.01-8.512,7.717-8.512c5.807,0,7.6,3.307,7.6,8.359
			v1.444H314.013z M319.907,116.741c-0.104-2.512-1.76-3.134-3.359-3.154c-1.332-0.018-2.873,1.193-2.967,2.408v0.641
			L319.907,116.741z"/>
		<path fill="#FFFFFF" d="M354.054,119.746v0.821c0,1.93,1.143,2.726,2.449,2.841c1.592,0.138,3.318-0.078,3.6-1.611h3.996
			c-0.18,3.827-2.836,5.478-7.523,5.478c-7.215,0-7.5-4.717-7.5-8.82c0-4.409,1.01-8.512,7.717-8.512c5.803,0,7.6,3.307,7.6,8.359
			v1.444H354.054z M359.946,116.741c-0.107-2.512-1.76-3.134-3.359-3.154c-1.332-0.018-2.877,1.193-2.971,2.408v0.641
			L359.946,116.741z"/>
		<path fill="#FFFFFF" d="M324.993,110.497h4.139v1.612h0.066c1.229-1.435,2.25-2.021,4.281-2.021c2.209,0,3.813,0.909,4.34,2.521
			h0.072c0.732-1.674,2.898-2.503,5.178-2.503c3.188,0,5.27,2.639,5.27,5.693v11.474h-4.344V116.24c0-1.321-1.42-1.914-2.389-2.055
			c-1.523-0.222-3.012,0.88-3.012,2.697v10.392h-3.854V116.24c0-1.321-1.482-1.906-2.383-2.055c-1.525-0.249-3.021,0.88-3.021,2.697
			v10.392h-4.344V110.497z"/>
		<path fill="#FFFFFF" d="M381.216,106.421h4.48v4.219h2.393v2.876h-2.393v9.396c0,1.288,0.592,1.299,1.27,1.313
			c0.402,0.006,0.797-0.031,1.123-0.063v2.937c-1.029,0.143-2.342,0.264-3.484,0.09c-1.664-0.254-3.418-1.07-3.389-3.758v-9.915
			h-2.029v-2.876h2.029V106.421z"/>
	</g>
</g>
</svg>
